<?xml version="1.0" standalone="no"?>
<!DOCTYPE svg PUBLIC "-//W3C//DTD SVG 20010904//EN"
 "http://www.w3.org/TR/2001/REC-SVG-20010904/DTD/svg10.dtd">
<svg version="1.0" xmlns="http://www.w3.org/2000/svg"
 width="1050.000000pt" height="1050.000000pt" viewBox="0 0 1050.000000 1050.000000"
 preserveAspectRatio="xMidYMid meet">

<g transform="translate(0.000000,1050.000000) scale(0.100000,-0.100000)"
fill="#000000" stroke="none">
<path d="M5095 8159 c-450 -44 -871 -302 -1117 -684 -381 -590 -311 -1355 169
-1865 222 -236 491 -384 821 -452 139 -28 411 -31 542 -5 266 53 480 149 674
301 568 446 746 1228 424 1870 -77 154 -160 268 -288 396 -330 330 -762 485
-1225 439z m415 -254 c456 -100 817 -424 958 -860 47 -144 57 -215 57 -395 0
-179 -10 -251 -56 -391 -151 -469 -556 -809 -1044 -879 -90 -12 -260 -12 -350
0 -540 77 -966 478 -1082 1020 -14 65 -18 127 -17 260 0 155 3 187 27 283 30
119 77 239 131 335 195 345 537 579 935 642 84 13 354 4 441 -15z"/>
<path d="M3947 4976 c-116 -63 -387 -305 -521 -466 -290 -346 -469 -752 -538
-1215 -9 -63 -13 -209 -13 -492 l0 -403 33 -32 32 -33 2310 0 2310 0 32 33 33
32 3 328 c2 188 -1 382 -8 457 -39 452 -199 868 -473 1234 -135 180 -393 426
-554 530 -81 51 -156 43 -189 -21 -16 -31 -18 -91 -4 -118 5 -10 63 -58 127
-106 128 -96 307 -268 395 -380 186 -235 328 -517 399 -793 55 -215 61 -271
66 -628 l5 -333 -2141 0 -2141 0 0 283 c0 155 5 323 10 372 43 376 188 740
414 1042 105 142 302 338 448 446 65 48 122 96 128 107 20 37 12 97 -18 131
-34 38 -100 49 -145 25z"/>
</g>
</svg>
